Coordinates
version=1
nRows=21
nColumns=12
inDegrees=yes

Units are S.I. units (second, meters, Newtons, ...)
Angles are in degrees

endheader
time	SC_y	SC_z	SC_x	AC_y	AC_z	AC_x	GH_y	GH_z	GH_yy	EL_x	PS_y
       0.0               -32.2          28.47         0.5988          50.28         -17.98          18.01          21.31          9.729         -120.9          136.3          144.1
   0.03046               -32.2          28.46         0.6014          50.28         -17.97           18.0          21.31          9.729         -120.9          136.3          144.1
   0.06092              -32.19          28.46         0.6041          50.28         -17.97           18.0           21.3          9.728         -120.9          136.3          144.1
   0.09138              -32.19          28.46         0.6071          50.28         -17.97           18.0           21.3          9.727         -120.8          136.3          144.1
    0.1218              -32.19          28.45         0.6102          50.29         -17.96          17.99           21.3          9.726         -120.8          136.3          144.1
    0.1523              -32.19          28.44         0.6135          50.29         -17.96          17.99           21.3          9.726         -120.8          136.3          144.1
    0.1828              -32.19          28.44         0.6171          50.29         -17.95          17.98           21.3          9.725         -120.8          136.3          144.1
    0.2132              -32.19          28.43         0.6209           50.3         -17.95          17.98           21.3          9.724         -120.7          136.3          144.1
    0.2437              -32.19          28.43          0.625           50.3         -17.94          17.97           21.3          9.723         -120.7          136.3          144.1
    0.2741              -32.18          28.42         0.6293          50.31         -17.94          17.96           21.3          9.721         -120.6          136.3          144.1
    0.3046              -32.18          28.41          0.634          50.31         -17.93          17.96           21.3           9.72         -120.6          136.3          144.1
    0.3351              -32.18           28.4         0.6391          50.32         -17.92          17.95           21.3          9.719         -120.6          136.2          144.1
    0.3655              -32.18           28.4         0.6445          50.32         -17.91          17.94          21.29          9.718         -120.5          136.2          144.0
     0.396              -32.18          28.39         0.6504          50.33         -17.91          17.93          21.29          9.716         -120.5          136.2          144.0
    0.4264              -32.17          28.38         0.6568          50.34          -17.9          17.92          21.29          9.714         -120.4          136.2          144.0
    0.4569              -32.17          28.37         0.6637          50.34         -17.89          17.91          21.29          9.713         -120.3          136.2          144.0
    0.4874              -32.17          28.35         0.6712          50.35         -17.88           17.9          21.29          9.711         -120.3          136.2          144.0
    0.5178              -32.17          28.34         0.6793          50.36         -17.87          17.89          21.28          9.709         -120.2          136.2          144.0
    0.5483              -32.16          28.33         0.6883          50.37         -17.85          17.88          21.28          9.706         -120.1          136.2          144.0
    0.5787              -32.16          28.31          0.698          50.38         -17.84          17.86          21.28          9.704         -120.0          136.2          144.0
    0.6092              -32.15          28.29         0.7088          50.39         -17.82          17.85          21.28          9.701         -119.9          136.2          144.0
